<svg width="16" height="15" viewBox="0 0 16 15" fill="none" xmlns="http://www.w3.org/2000/svg">
<mask id="mask0_10_66" style="mask-type:alpha" maskUnits="userSpaceOnUse" x="-1" y="-3" width="18" height="18">
<rect x="-1" y="-3" width="18" height="18" fill="#D9D9D9"/>
</mask>
<g mask="url(#mask0_10_66)">
<path d="M1.5 13.5C1.0875 13.5 0.734375 13.3531 0.440625 13.0594C0.146875 12.7656 0 12.4125 0 12V1.5C0 1.0875 0.146875 0.734375 0.440625 0.440625C0.734375 0.146875 1.0875 0 1.5 0H10.5L13.5 3V7.05L12 8.55V3.61875L9.88125 1.5H1.5V12H8.55L7.05 13.5H1.5ZM6.75 11.25C7.375 11.25 7.90625 11.0312 8.34375 10.5938C8.78125 10.1562 9 9.625 9 9C9 8.375 8.78125 7.84375 8.34375 7.40625C7.90625 6.96875 7.375 6.75 6.75 6.75C6.125 6.75 5.59375 6.96875 5.15625 7.40625C4.71875 7.84375 4.5 8.375 4.5 9C4.5 9.625 4.71875 10.1562 5.15625 10.5938C5.59375 11.0312 6.125 11.25 6.75 11.25ZM2.25 5.25H9V2.25H2.25V5.25ZM9 15V13.6688L12.75 9.9375L14.0625 11.2688L10.3313 15H9ZM14.55 10.7625L13.2188 9.45L13.8563 8.8125C13.9313 8.7375 14.0219 8.7 14.1281 8.7C14.2344 8.7 14.325 8.7375 14.4 8.8125L15.1875 9.6C15.2625 9.675 15.3 9.7625 15.3 9.8625C15.3 9.9625 15.2625 10.05 15.1875 10.125L14.55 10.7625Z" fill="white"/>
</g>
</svg>
