<svg width="31" height="30" viewBox="0 0 31 30" fill="none" xmlns="http://www.w3.org/2000/svg">
<mask id="mask0_10_534" style="mask-type:alpha" maskUnits="userSpaceOnUse" x="-4" y="-3" width="39" height="36">
<rect x="-3.1" y="-2.92285" width="37.2" height="35.0743" fill="#D9D9D9"/>
</mask>
<g mask="url(#mask0_10_534)">
<path d="M13.95 21.9214H17.05V16.0757H23.25V13.1529H17.05V7.30714H13.95V13.1529H7.75V16.0757H13.95V21.9214ZM15.5 29.2286C13.3558 29.2286 11.3408 28.8449 9.455 28.0777C7.56917 27.3104 5.92875 26.2692 4.53375 24.9539C3.13875 23.6386 2.03438 22.0919 1.22063 20.3139C0.406875 18.5358 0 16.6359 0 14.6143C0 12.5926 0.406875 10.6928 1.22063 8.91471C2.03438 7.13664 3.13875 5.58996 4.53375 4.27468C5.92875 2.95939 7.56917 1.91813 9.455 1.15088C11.3408 0.383625 13.3558 0 15.5 0C17.6442 0 19.6592 0.383625 21.545 1.15088C23.4308 1.91813 25.0713 2.95939 26.4663 4.27468C27.8613 5.58996 28.9656 7.13664 29.7794 8.91471C30.5931 10.6928 31 12.5926 31 14.6143C31 16.6359 30.5931 18.5358 29.7794 20.3139C28.9656 22.0919 27.8613 23.6386 26.4663 24.9539C25.0713 26.2692 23.4308 27.3104 21.545 28.0777C19.6592 28.8449 17.6442 29.2286 15.5 29.2286ZM15.5 26.3057C18.9617 26.3057 21.8938 25.1731 24.2963 22.9079C26.6988 20.6427 27.9 17.8781 27.9 14.6143C27.9 11.3504 26.6988 8.58589 24.2963 6.32068C21.8938 4.05546 18.9617 2.92286 15.5 2.92286C12.0383 2.92286 9.10625 4.05546 6.70375 6.32068C4.30125 8.58589 3.1 11.3504 3.1 14.6143C3.1 17.8781 4.30125 20.6427 6.70375 22.9079C9.10625 25.1731 12.0383 26.3057 15.5 26.3057Z" fill="white"/>
</g>
</svg>
