<svg width="37" height="29" viewBox="0 0 37 29" fill="none" xmlns="http://www.w3.org/2000/svg">
<mask id="mask0_10_440" style="mask-type:alpha" maskUnits="userSpaceOnUse" x="-4" y="-7" width="46" height="41">
<rect x="-3.72791" y="-6.77809" width="44.7354" height="40.6686" fill="white"/>
</mask>
<g mask="url(#mask0_10_440)">
<path d="M14.9118 13.5562C12.8614 13.5562 11.1062 12.8925 9.64608 11.5651C8.18597 10.2378 7.45591 8.64207 7.45591 6.7781C7.45591 4.91412 8.18597 3.31844 9.64608 1.99107C11.1062 0.663689 12.8614 0 14.9118 0C16.9622 0 18.7174 0.663689 20.1776 1.99107C21.6377 3.31844 22.3677 4.91412 22.3677 6.7781C22.3677 8.64207 21.6377 10.2378 20.1776 11.5651C18.7174 12.8925 16.9622 13.5562 14.9118 13.5562ZM0 27.1124V22.3677C0 21.4357 0.264063 20.5602 0.79219 19.7412C1.32032 18.9222 2.05037 18.3009 2.98236 17.8772C4.56674 17.1429 6.35306 16.5216 8.3413 16.0133C10.3295 15.5049 12.5197 15.2507 14.9118 15.2507H15.5642C15.7506 15.2507 15.937 15.279 16.1234 15.3354C15.8749 15.8438 15.6652 16.3733 15.4943 16.9241C15.3234 17.4748 15.1914 18.0467 15.0982 18.6398H14.9118C12.7061 18.6398 10.7256 18.8939 8.97039 19.4023C7.21514 19.9107 5.77833 20.419 4.65994 20.9274C4.38035 21.0686 4.15512 21.2663 3.98425 21.5205C3.81339 21.7746 3.72795 22.0571 3.72795 22.3677V23.7233H15.471C15.6574 24.3164 15.9059 24.9024 16.2166 25.4814C16.5273 26.0604 16.869 26.604 17.2418 27.1124H0ZM26.0957 28.8069L25.5365 26.2651C25.1637 26.1239 24.8142 25.9756 24.488 25.8203C24.1618 25.665 23.8278 25.4744 23.4861 25.2484L20.7833 26.011L18.9194 23.1303L21.0629 21.4357C21.0008 21.0403 20.9697 20.6732 20.9697 20.3343C20.9697 19.9954 21.0008 19.6282 21.0629 19.2329L18.9194 17.5383L20.7833 14.6576L23.4861 15.4202C23.8278 15.1942 24.1618 15.0036 24.488 14.8483C24.8142 14.6929 25.1637 14.5447 25.5365 14.4035L26.0957 11.8617H29.8236L30.3828 14.4035C30.7556 14.5447 31.1051 14.7 31.4313 14.8695C31.7575 15.0389 32.0915 15.2507 32.4332 15.5049L35.136 14.6576L36.9999 17.6231L34.8564 19.3176C34.9185 19.6565 34.9496 20.0095 34.9496 20.3767C34.9496 20.7438 34.9185 21.0968 34.8564 21.4357L36.9999 23.1303L35.136 26.011L32.4332 25.2484C32.0915 25.4744 31.7575 25.665 31.4313 25.8203C31.1051 25.9756 30.7556 26.1239 30.3828 26.2651L29.8236 28.8069H26.0957ZM27.9597 23.7233C28.9848 23.7233 29.8625 23.3915 30.5925 22.7278C31.3226 22.0641 31.6876 21.2663 31.6876 20.3343C31.6876 19.4023 31.3226 18.6045 30.5925 17.9408C29.8625 17.2771 28.9848 16.9452 27.9597 16.9452C26.9345 16.9452 26.0568 17.2771 25.3268 17.9408C24.5967 18.6045 24.2317 19.4023 24.2317 20.3343C24.2317 21.2663 24.5967 22.0641 25.3268 22.7278C26.0568 23.3915 26.9345 23.7233 27.9597 23.7233ZM14.9118 10.1671C15.937 10.1671 16.8146 9.8353 17.5447 9.17161C18.2747 8.50792 18.6398 7.71009 18.6398 6.7781C18.6398 5.84611 18.2747 5.04827 17.5447 4.38458C16.8146 3.72089 15.937 3.38905 14.9118 3.38905C13.8866 3.38905 13.009 3.72089 12.2789 4.38458C11.5489 5.04827 11.1839 5.84611 11.1839 6.7781C11.1839 7.71009 11.5489 8.50792 12.2789 9.17161C13.009 9.8353 13.8866 10.1671 14.9118 10.1671Z" fill="white"/>
</g>
</svg>
