<svg width="30" height="30" viewBox="0 0 30 30" fill="none" xmlns="http://www.w3.org/2000/svg">
<mask id="mask0_7_207" style="mask-type:alpha" maskUnits="userSpaceOnUse" x="-5" y="-5" width="40" height="40">
<rect x="-5" y="-5" width="40" height="40" fill="#D9D9D9"/>
</mask>
<g mask="url(#mask0_7_207)">
<path d="M15 30C12.9167 30 10.9653 29.6042 9.14583 28.8125C7.32639 28.0208 5.74306 26.9514 4.39583 25.6042C3.04861 24.2569 1.97917 22.6736 1.1875 20.8542C0.395833 19.0347 0 17.0833 0 15C0 12.9167 0.395833 10.9653 1.1875 9.14583C1.97917 7.32639 3.04861 5.74306 4.39583 4.39583C5.74306 3.04861 7.32639 1.97917 9.14583 1.1875C10.9653 0.395833 12.9167 0 15 0C17.2778 0 19.4375 0.486111 21.4792 1.45833C23.5208 2.43056 25.25 3.80556 26.6667 5.58333V1.66667H30V11.6667H20V8.33333H24.5833C23.4444 6.77778 22.0417 5.55556 20.375 4.66667C18.7083 3.77778 16.9167 3.33333 15 3.33333C11.75 3.33333 8.99306 4.46528 6.72917 6.72917C4.46528 8.99306 3.33333 11.75 3.33333 15C3.33333 18.25 4.46528 21.0069 6.72917 23.2708C8.99306 25.5347 11.75 26.6667 15 26.6667C17.9167 26.6667 20.4653 25.7222 22.6458 23.8333C24.8264 21.9444 26.1111 19.5556 26.5 16.6667H29.9167C29.5 20.4722 27.8681 23.6458 25.0208 26.1875C22.1736 28.7292 18.8333 30 15 30ZM19.6667 22L13.3333 15.6667V6.66667H16.6667V14.3333L22 19.6667L19.6667 22Z" fill="white"/>
</g>
</svg>
