<svg width="26" height="25" viewBox="0 0 26 25" fill="none" xmlns="http://www.w3.org/2000/svg">
<mask id="mask0_7_548" style="mask-type:alpha" maskUnits="userSpaceOnUse" x="-2" y="-5" width="31" height="30">
<rect x="-1.66669" y="-5" width="30" height="30" fill="#D9D9D9"/>
</mask>
<g mask="url(#mask0_7_548)">
<path d="M2.5 22.5C1.8125 22.5 1.22396 22.2552 0.734375 21.7656C0.244792 21.276 0 20.6875 0 20V2.5C0 1.8125 0.244792 1.22396 0.734375 0.734375C1.22396 0.244792 1.8125 0 2.5 0H17.5L22.5 5V11.75L20 14.25V6.03125L16.4687 2.5H2.5V20H14.25L11.75 22.5H2.5ZM11.25 18.75C12.2917 18.75 13.1771 18.3854 13.9062 17.6562C14.6354 16.9271 15 16.0417 15 15C15 13.9583 14.6354 13.0729 13.9062 12.3438C13.1771 11.6146 12.2917 11.25 11.25 11.25C10.2083 11.25 9.32292 11.6146 8.59375 12.3438C7.86458 13.0729 7.5 13.9583 7.5 15C7.5 16.0417 7.86458 16.9271 8.59375 17.6562C9.32292 18.3854 10.2083 18.75 11.25 18.75ZM3.75 8.75H15V3.75H3.75V8.75ZM15 25V22.7812L21.25 16.5625L23.4375 18.7812L17.2188 25H15ZM24.25 17.9375L22.0312 15.75L23.0937 14.6875C23.2187 14.5625 23.3698 14.5 23.5469 14.5C23.724 14.5 23.875 14.5625 24 14.6875L25.3125 16C25.4375 16.125 25.5 16.2708 25.5 16.4375C25.5 16.6042 25.4375 16.75 25.3125 16.875L24.25 17.9375Z" fill="white"/>
</g>
</svg>
