<svg width="37" height="39" viewBox="0 0 37 39" fill="none" xmlns="http://www.w3.org/2000/svg">
<mask id="mask0_7_473" style="mask-type:alpha" maskUnits="userSpaceOnUse" x="-2" y="-1" width="41" height="48">
<rect x="-1.67496" y="-0.99997" width="40.2" height="48" fill="#D9D9D9"/>
</mask>
<g mask="url(#mask0_7_473)">
<path d="M18.425 39C17.085 37.7333 15.6333 36.75 14.07 36.05C12.5067 35.35 10.8875 35 9.2125 35C8.04 35 6.88844 35.1833 5.75781 35.55C4.62719 35.9167 3.54542 36.4333 2.5125 37.1C1.92625 37.4667 1.36094 37.45 0.816563 37.05C0.272188 36.65 0 36.0667 0 35.3V11.2C0 10.8333 0.0767708 10.4833 0.230313 10.15C0.383854 9.81667 0.614167 9.56667 0.92125 9.4C2.20542 8.6 3.54542 8 4.94125 7.6C6.33708 7.2 7.76083 7 9.2125 7C10.8317 7 12.4159 7.25 13.9653 7.75C15.5147 8.25 17.0013 9 18.425 10V34.2C19.8488 33.1333 21.3423 32.3333 22.9056 31.8C24.469 31.2667 26.0463 31 27.6375 31C28.6425 31 29.6266 31.1 30.5897 31.3C31.5528 31.5 32.5229 31.8 33.5 32.2V8.2C33.9188 8.36667 34.3305 8.54167 34.7353 8.725C35.1401 8.90833 35.5379 9.13333 35.9288 9.4C36.2358 9.56667 36.4661 9.81667 36.6197 10.15C36.7732 10.4833 36.85 10.8333 36.85 11.2V35.3C36.85 36.0667 36.5778 36.65 36.0334 37.05C35.4891 37.45 34.9238 37.4667 34.3375 37.1C33.3046 36.4333 32.2228 35.9167 31.0922 35.55C29.9616 35.1833 28.81 35 27.6375 35C25.9625 35 24.3433 35.35 22.78 36.05C21.2167 36.75 19.765 37.7333 18.425 39ZM21.775 29V10L30.15 0V20L21.775 29ZM15.075 32.25V12.45C14.1538 11.9833 13.1976 11.625 12.2066 11.375C11.2155 11.125 10.2175 11 9.2125 11C8.17958 11 7.17458 11.1167 6.1975 11.35C5.22042 11.5833 4.27125 11.9333 3.35 12.4V32.25C4.32708 31.8167 5.29719 31.5 6.26031 31.3C7.22344 31.1 8.2075 31 9.2125 31C10.2175 31 11.2016 31.1 12.1647 31.3C13.1278 31.5 14.0979 31.8167 15.075 32.25Z" fill="#1C1B1F"/>
</g>
</svg>
