<svg width="37" height="27" viewBox="0 0 37 27" fill="none" xmlns="http://www.w3.org/2000/svg">
<mask id="mask0_7_251" style="mask-type:alpha" maskUnits="userSpaceOnUse" x="-2" y="-7" width="41" height="41">
<rect x="-1.68178" y="-6.72736" width="40.3637" height="40.3637" fill="#D9D9D9"/>
</mask>
<g mask="url(#mask0_7_251)">
<path d="M9.25001 26.9091C6.69925 26.9091 4.51989 26.0262 2.71193 24.2603C0.903978 22.4943 0 20.336 0 17.7852C0 15.5989 0.658713 13.6508 1.97614 11.9409C3.29356 10.2311 5.01743 9.13789 7.14773 8.66137C7.84849 6.08258 9.25001 3.99432 11.3523 2.39659C13.4546 0.798865 15.8371 0 18.5 0C21.7796 0 24.5616 1.14224 26.8461 3.42671C29.1305 5.71118 30.2728 8.49319 30.2728 11.7727C32.2069 11.997 33.8116 12.8309 35.087 14.2744C36.3624 15.718 37 17.4068 37 19.3409C37 21.4432 36.2642 23.2301 34.7926 24.7017C33.3211 26.1733 31.5341 26.9091 29.4318 26.9091H20.1818C19.2568 26.9091 18.465 26.5798 17.8063 25.9211C17.1476 25.2623 16.8182 24.4705 16.8182 23.5455V14.8841L14.1273 17.4909L11.7727 15.1364L18.5 8.4091L25.2273 15.1364L22.8728 17.4909L20.1818 14.8841V23.5455H29.4318C30.6091 23.5455 31.6042 23.139 32.4171 22.3262C33.23 21.5133 33.6364 20.5182 33.6364 19.3409C33.6364 18.1637 33.23 17.1686 32.4171 16.3557C31.6042 15.5428 30.6091 15.1364 29.4318 15.1364H26.9091V11.7727C26.9091 9.44622 26.0892 7.46308 24.4495 5.8233C22.8097 4.18353 20.8265 3.36364 18.5 3.36364C16.1735 3.36364 14.1904 4.18353 12.5506 5.8233C10.9108 7.46308 10.0909 9.44622 10.0909 11.7727H9.25001C7.62425 11.7727 6.23675 12.3474 5.08751 13.4966C3.93826 14.6459 3.36364 16.0334 3.36364 17.6591C3.36364 19.2849 3.93826 20.6724 5.08751 21.8216C6.23675 22.9709 7.62425 23.5455 9.25001 23.5455H13.4546V26.9091H9.25001Z" fill="white"/>
</g>
</svg>
