<svg width="34" height="35" viewBox="0 0 34 35" fill="none" xmlns="http://www.w3.org/2000/svg">
<mask id="mask0_7_191" style="mask-type:alpha" maskUnits="userSpaceOnUse" x="-4" y="-4" width="42" height="43">
<rect x="-3.40004" y="-3.49996" width="40.7999" height="42" fill="#D9D9D9"/>
</mask>
<g mask="url(#mask0_7_191)">
<path d="M6.54499 26.425C7.98999 25.2875 9.60499 24.3906 11.39 23.7343C13.175 23.0781 15.045 22.75 17 22.75C18.955 22.75 20.825 23.0781 22.61 23.7343C24.395 24.3906 26.01 25.2875 27.455 26.425C28.4466 25.2291 29.2187 23.8729 29.7712 22.3562C30.3237 20.8396 30.6 19.2208 30.6 17.5C30.6 13.6208 29.2754 10.3177 26.6262 7.59062C23.9771 4.86354 20.7683 3.5 17 3.5C13.2317 3.5 10.0229 4.86354 7.37374 7.59062C4.72458 10.3177 3.4 13.6208 3.4 17.5C3.4 19.2208 3.67625 20.8396 4.22875 22.3562C4.78124 23.8729 5.55333 25.2291 6.54499 26.425ZM17 19.25C15.3283 19.25 13.9187 18.6594 12.7712 17.4781C11.6237 16.2969 11.05 14.8458 11.05 13.125C11.05 11.4042 11.6237 9.95311 12.7712 8.77186C13.9187 7.59062 15.3283 6.99999 17 6.99999C18.6716 6.99999 20.0812 7.59062 21.2287 8.77186C22.3762 9.95311 22.95 11.4042 22.95 13.125C22.95 14.8458 22.3762 16.2969 21.2287 17.4781C20.0812 18.6594 18.6716 19.25 17 19.25ZM17 35C14.6483 35 12.4383 34.5406 10.37 33.6218C8.30166 32.7031 6.50249 31.4562 4.97249 29.8812C3.4425 28.3062 2.23125 26.4541 1.33875 24.325C0.446249 22.1958 0 19.9208 0 17.5C0 15.0791 0.446249 12.8042 1.33875 10.675C2.23125 8.54582 3.4425 6.69374 4.97249 5.11874C6.50249 3.54375 8.30166 2.29687 10.37 1.37812C12.4383 0.459374 14.6483 0 17 0C19.3516 0 21.5616 0.459374 23.63 1.37812C25.6983 2.29687 27.4975 3.54375 29.0275 5.11874C30.5575 6.69374 31.7687 8.54582 32.6612 10.675C33.5537 12.8042 34 15.0791 34 17.5C34 19.9208 33.5537 22.1958 32.6612 24.325C31.7687 26.4541 30.5575 28.3062 29.0275 29.8812C27.4975 31.4562 25.6983 32.7031 23.63 33.6218C21.5616 34.5406 19.3516 35 17 35ZM17 31.5C18.5016 31.5 19.9183 31.2739 21.25 30.8218C22.5816 30.3698 23.8 29.7208 24.905 28.875C23.8 28.0291 22.5816 27.3802 21.25 26.9281C19.9183 26.476 18.5016 26.25 17 26.25C15.4983 26.25 14.0817 26.476 12.75 26.9281C11.4183 27.3802 10.2 28.0291 9.09499 28.875C10.2 29.7208 11.4183 30.3698 12.75 30.8218C14.0817 31.2739 15.4983 31.5 17 31.5ZM17 15.75C17.7366 15.75 18.3458 15.5021 18.8275 15.0062C19.3091 14.5104 19.55 13.8833 19.55 13.125C19.55 12.3667 19.3091 11.7396 18.8275 11.2437C18.3458 10.7479 17.7366 10.5 17 10.5C16.2633 10.5 15.6541 10.7479 15.1725 11.2437C14.6908 11.7396 14.45 12.3667 14.45 13.125C14.45 13.8833 14.6908 14.5104 15.1725 15.0062C15.6541 15.5021 16.2633 15.75 17 15.75Z" fill="#1C1B1F"/>
</g>
</svg>
