<svg width="30" height="40" viewBox="0 0 30 40" fill="none" xmlns="http://www.w3.org/2000/svg">
<mask id="mask0_7_479" style="mask-type:alpha" maskUnits="userSpaceOnUse" x="-7" y="-4" width="41" height="48">
<rect x="-6.66663" y="-3.9801" width="40" height="47.7612" fill="#D9D9D9"/>
</mask>
<g mask="url(#mask0_7_479)">
<path d="M21.6667 29.8507C22.3611 29.8507 22.9514 29.5605 23.4375 28.9801C23.9236 28.3997 24.1667 27.6949 24.1667 26.8657C24.1667 26.0365 23.9236 25.3317 23.4375 24.7512C22.9514 24.1708 22.3611 23.8806 21.6667 23.8806C20.9722 23.8806 20.3819 24.1708 19.8958 24.7512C19.4097 25.3317 19.1667 26.0365 19.1667 26.8657C19.1667 27.6949 19.4097 28.3997 19.8958 28.9801C20.3819 29.5605 20.9722 29.8507 21.6667 29.8507ZM21.6667 35.8209C22.5278 35.8209 23.3194 35.5804 24.0417 35.0995C24.7639 34.6186 25.3472 33.9801 25.7917 33.1841C25.1806 32.7529 24.5278 32.4212 23.8333 32.1891C23.1389 31.9569 22.4167 31.8408 21.6667 31.8408C20.9167 31.8408 20.1944 31.9569 19.5 32.1891C18.8056 32.4212 18.1528 32.7529 17.5417 33.1841C17.9861 33.9801 18.5694 34.6186 19.2917 35.0995C20.0139 35.5804 20.8056 35.8209 21.6667 35.8209ZM13.3333 39.801C9.47222 38.6401 6.28472 35.995 3.77083 31.8657C1.25694 27.7363 0 23.1509 0 18.1095V5.97015L13.3333 0L26.6667 5.97015V17.2637C26.1389 16.9983 25.5972 16.7579 25.0417 16.5423C24.4861 16.3267 23.9167 16.1692 23.3333 16.0697V8.75622L13.3333 4.27861L3.33333 8.75622V18.1095C3.33333 19.6683 3.50694 21.2272 3.85417 22.7861C4.20139 24.3449 4.6875 25.8292 5.3125 27.2388C5.9375 28.6484 6.69444 29.9502 7.58333 31.1443C8.47222 32.3383 9.45833 33.3333 10.5417 34.1293C10.8472 35.1907 11.25 36.2023 11.75 37.1642C12.25 38.126 12.8194 38.9884 13.4583 39.7512C13.4306 39.7512 13.4097 39.7595 13.3958 39.7761C13.3819 39.7927 13.3611 39.801 13.3333 39.801ZM21.6667 39.801C19.3611 39.801 17.3958 38.8308 15.7708 36.8905C14.1458 34.9502 13.3333 32.6036 13.3333 29.8507C13.3333 27.0978 14.1458 24.7512 15.7708 22.8109C17.3958 20.8706 19.3611 19.9005 21.6667 19.9005C23.9722 19.9005 25.9375 20.8706 27.5625 22.8109C29.1875 24.7512 30 27.0978 30 29.8507C30 32.6036 29.1875 34.9502 27.5625 36.8905C25.9375 38.8308 23.9722 39.801 21.6667 39.801Z" fill="#1C1B1F"/>
</g>
</svg>
