<svg width="29" height="34" viewBox="0 0 29 34" fill="none" xmlns="http://www.w3.org/2000/svg">
<mask id="mask0_7_430" style="mask-type:alpha" maskUnits="userSpaceOnUse" x="-5" y="-6" width="39" height="46">
<rect x="-4.79222" y="-5.66665" width="38.3378" height="45.3333" fill="#D9D9D9"/>
</mask>
<g mask="url(#mask0_7_430)">
<path d="M26.5169 34L16.4533 22.1C15.6546 22.8556 14.7361 23.4537 13.6978 23.8944C12.6594 24.3352 11.5546 24.5556 10.3831 24.5556C7.48119 24.5556 5.02517 23.3671 3.0151 20.9903C1.00503 18.6134 0 15.7093 0 12.2778C0 8.8463 1.00503 5.94213 3.0151 3.56528C5.02517 1.18843 7.48119 0 10.3831 0C13.2851 0 15.7411 1.18843 17.7512 3.56528C19.7612 5.94213 20.7663 8.8463 20.7663 12.2778C20.7663 13.663 20.5799 14.9694 20.2072 16.1972C19.8345 17.425 19.3286 18.5111 18.6897 19.4556L28.7533 31.3556L26.5169 34ZM10.3831 20.7778C12.3799 20.7778 14.0771 19.9514 15.4749 18.2986C16.8726 16.6458 17.5715 14.6389 17.5715 12.2778C17.5715 9.91667 16.8726 7.90972 15.4749 6.25694C14.0771 4.60417 12.3799 3.77778 10.3831 3.77778C8.38638 3.77778 6.68914 4.60417 5.29141 6.25694C3.89368 7.90972 3.19481 9.91667 3.19481 12.2778C3.19481 14.6389 3.89368 16.6458 5.29141 18.2986C6.68914 19.9514 8.38638 20.7778 10.3831 20.7778Z" fill="black"/>
</g>
</svg>
