<svg width="38" height="34" viewBox="0 0 38 34" fill="none" xmlns="http://www.w3.org/2000/svg">
<mask id="mask0_7_700" style="mask-type:alpha" maskUnits="userSpaceOnUse" x="-7" y="-4" width="52" height="42">
<rect x="-6.33337" y="-3.39415" width="50.6667" height="40.7293" fill="#D9D9D9"/>
</mask>
<g mask="url(#mask0_7_700)">
<path d="M4.22222 33.9411C3.06111 33.9411 2.06713 33.6087 1.24028 32.9441C0.413426 32.2794 0 31.4803 0 30.547V6.78821C0 5.85484 0.413426 5.05581 1.24028 4.39113C2.06713 3.72645 3.06111 3.39411 4.22222 3.39411H6.33333V0H10.5556V3.39411H27.4444V0H31.6667V3.39411H33.7778C34.9389 3.39411 35.9329 3.72645 36.7597 4.39113C37.5866 5.05581 38 5.85484 38 6.78821V30.547C38 31.4803 37.5866 32.2794 36.7597 32.9441C35.9329 33.6087 34.9389 33.9411 33.7778 33.9411H4.22222ZM4.22222 30.547H33.7778V13.5764H4.22222V30.547ZM4.22222 10.1823H33.7778V6.78821H4.22222V10.1823ZM19 20.3646C18.4019 20.3646 17.9005 20.202 17.4958 19.8767C17.0912 19.5515 16.8889 19.1484 16.8889 18.6676C16.8889 18.1868 17.0912 17.7837 17.4958 17.4584C17.9005 17.1332 18.4019 16.9705 19 16.9705C19.5982 16.9705 20.0995 17.1332 20.5042 17.4584C20.9088 17.7837 21.1111 18.1868 21.1111 18.6676C21.1111 19.1484 20.9088 19.5515 20.5042 19.8767C20.0995 20.202 19.5982 20.3646 19 20.3646ZM10.5556 20.3646C9.95741 20.3646 9.45602 20.202 9.05139 19.8767C8.64676 19.5515 8.44445 19.1484 8.44445 18.6676C8.44445 18.1868 8.64676 17.7837 9.05139 17.4584C9.45602 17.1332 9.95741 16.9705 10.5556 16.9705C11.1537 16.9705 11.6551 17.1332 12.0597 17.4584C12.4644 17.7837 12.6667 18.1868 12.6667 18.6676C12.6667 19.1484 12.4644 19.5515 12.0597 19.8767C11.6551 20.202 11.1537 20.3646 10.5556 20.3646ZM27.4444 20.3646C26.8463 20.3646 26.3449 20.202 25.9403 19.8767C25.5357 19.5515 25.3333 19.1484 25.3333 18.6676C25.3333 18.1868 25.5357 17.7837 25.9403 17.4584C26.3449 17.1332 26.8463 16.9705 27.4444 16.9705C28.0426 16.9705 28.544 17.1332 28.9486 17.4584C29.3532 17.7837 29.5556 18.1868 29.5556 18.6676C29.5556 19.1484 29.3532 19.5515 28.9486 19.8767C28.544 20.202 28.0426 20.3646 27.4444 20.3646ZM19 27.1529C18.4019 27.1529 17.9005 26.9902 17.4958 26.665C17.0912 26.3397 16.8889 25.9366 16.8889 25.4558C16.8889 24.975 17.0912 24.5719 17.4958 24.2467C17.9005 23.9214 18.4019 23.7588 19 23.7588C19.5982 23.7588 20.0995 23.9214 20.5042 24.2467C20.9088 24.5719 21.1111 24.975 21.1111 25.4558C21.1111 25.9366 20.9088 26.3397 20.5042 26.665C20.0995 26.9902 19.5982 27.1529 19 27.1529ZM10.5556 27.1529C9.95741 27.1529 9.45602 26.9902 9.05139 26.665C8.64676 26.3397 8.44445 25.9366 8.44445 25.4558C8.44445 24.975 8.64676 24.5719 9.05139 24.2467C9.45602 23.9214 9.95741 23.7588 10.5556 23.7588C11.1537 23.7588 11.6551 23.9214 12.0597 24.2467C12.4644 24.5719 12.6667 24.975 12.6667 25.4558C12.6667 25.9366 12.4644 26.3397 12.0597 26.665C11.6551 26.9902 11.1537 27.1529 10.5556 27.1529ZM27.4444 27.1529C26.8463 27.1529 26.3449 26.9902 25.9403 26.665C25.5357 26.3397 25.3333 25.9366 25.3333 25.4558C25.3333 24.975 25.5357 24.5719 25.9403 24.2467C26.3449 23.9214 26.8463 23.7588 27.4444 23.7588C28.0426 23.7588 28.544 23.9214 28.9486 24.2467C29.3532 24.5719 29.5556 24.975 29.5556 25.4558C29.5556 25.9366 29.3532 26.3397 28.9486 26.665C28.544 26.9902 28.0426 27.1529 27.4444 27.1529Z" fill="#1C1B1F"/>
</g>
</svg>
