<svg width="38" height="42" viewBox="0 0 38 42" fill="none" xmlns="http://www.w3.org/2000/svg">
<mask id="mask0_7_303" style="mask-type:alpha" maskUnits="userSpaceOnUse" x="-7" y="-5" width="52" height="52">
<rect x="-6.3" y="-4.20002" width="50.4" height="50.4" fill="white"/>
</mask>
<g mask="url(#mask0_7_303)">
<path d="M4.2 42C3.045 42 2.05625 41.5888 1.23375 40.7663C0.41125 39.9438 0 38.955 0 37.8V8.4C0 7.245 0.41125 6.25625 1.23375 5.43375C2.05625 4.61125 3.045 4.2 4.2 4.2H6.3V0H10.5V4.2H27.3V0H31.5V4.2H33.6C34.755 4.2 35.7438 4.61125 36.5663 5.43375C37.3888 6.25625 37.8 7.245 37.8 8.4V37.8C37.8 38.955 37.3888 39.9438 36.5663 40.7663C35.7438 41.5888 34.755 42 33.6 42H4.2ZM4.2 37.8H33.6V16.8H4.2V37.8ZM4.2 12.6H33.6V8.4H4.2V12.6ZM18.9 25.2C18.305 25.2 17.8063 24.9988 17.4038 24.5963C17.0013 24.1938 16.8 23.695 16.8 23.1C16.8 22.505 17.0013 22.0063 17.4038 21.6038C17.8063 21.2013 18.305 21 18.9 21C19.495 21 19.9938 21.2013 20.3963 21.6038C20.7988 22.0063 21 22.505 21 23.1C21 23.695 20.7988 24.1938 20.3963 24.5963C19.9938 24.9988 19.495 25.2 18.9 25.2ZM10.5 25.2C9.905 25.2 9.40625 24.9988 9.00375 24.5963C8.60125 24.1938 8.4 23.695 8.4 23.1C8.4 22.505 8.60125 22.0063 9.00375 21.6038C9.40625 21.2013 9.905 21 10.5 21C11.095 21 11.5938 21.2013 11.9963 21.6038C12.3988 22.0063 12.6 22.505 12.6 23.1C12.6 23.695 12.3988 24.1938 11.9963 24.5963C11.5938 24.9988 11.095 25.2 10.5 25.2ZM27.3 25.2C26.705 25.2 26.2063 24.9988 25.8038 24.5963C25.4013 24.1938 25.2 23.695 25.2 23.1C25.2 22.505 25.4013 22.0063 25.8038 21.6038C26.2063 21.2013 26.705 21 27.3 21C27.895 21 28.3938 21.2013 28.7963 21.6038C29.1988 22.0063 29.4 22.505 29.4 23.1C29.4 23.695 29.1988 24.1938 28.7963 24.5963C28.3938 24.9988 27.895 25.2 27.3 25.2ZM18.9 33.6C18.305 33.6 17.8063 33.3988 17.4038 32.9963C17.0013 32.5938 16.8 32.095 16.8 31.5C16.8 30.905 17.0013 30.4063 17.4038 30.0038C17.8063 29.6013 18.305 29.4 18.9 29.4C19.495 29.4 19.9938 29.6013 20.3963 30.0038C20.7988 30.4063 21 30.905 21 31.5C21 32.095 20.7988 32.5938 20.3963 32.9963C19.9938 33.3988 19.495 33.6 18.9 33.6ZM10.5 33.6C9.905 33.6 9.40625 33.3988 9.00375 32.9963C8.60125 32.5938 8.4 32.095 8.4 31.5C8.4 30.905 8.60125 30.4063 9.00375 30.0038C9.40625 29.6013 9.905 29.4 10.5 29.4C11.095 29.4 11.5938 29.6013 11.9963 30.0038C12.3988 30.4063 12.6 30.905 12.6 31.5C12.6 32.095 12.3988 32.5938 11.9963 32.9963C11.5938 33.3988 11.095 33.6 10.5 33.6ZM27.3 33.6C26.705 33.6 26.2063 33.3988 25.8038 32.9963C25.4013 32.5938 25.2 32.095 25.2 31.5C25.2 30.905 25.4013 30.4063 25.8038 30.0038C26.2063 29.6013 26.705 29.4 27.3 29.4C27.895 29.4 28.3938 29.6013 28.7963 30.0038C29.1988 30.4063 29.4 30.905 29.4 31.5C29.4 32.095 29.1988 32.5938 28.7963 32.9963C28.3938 33.3988 27.895 33.6 27.3 33.6Z" fill="white"/>
</g>
</svg>
