<svg width="34" height="42" viewBox="0 0 34 42" fill="none" xmlns="http://www.w3.org/2000/svg">
<mask id="mask0_7_306" style="mask-type:alpha" maskUnits="userSpaceOnUse" x="-9" y="-5" width="51" height="52">
<rect x="-8.40004" y="-4.19999" width="50.4" height="50.4" fill="#D9D9D9"/>
</mask>
<g mask="url(#mask0_7_306)">
<path d="M0 35.7V31.5H4.2V16.8C4.2 13.895 5.075 11.3138 6.825 9.05625C8.575 6.79875 10.85 5.32 13.65 4.62V3.15C13.65 2.275 13.9563 1.53125 14.5688 0.91875C15.1813 0.30625 15.925 0 16.8 0C17.675 0 18.4188 0.30625 19.0313 0.91875C19.6438 1.53125 19.95 2.275 19.95 3.15V4.62C22.75 5.32 25.025 6.79875 26.775 9.05625C28.525 11.3138 29.4 13.895 29.4 16.8V31.5H33.6V35.7H0ZM16.8 42C15.645 42 14.6563 41.5888 13.8338 40.7663C13.0113 39.9438 12.6 38.955 12.6 37.8H21C21 38.955 20.5888 39.9438 19.7663 40.7663C18.9438 41.5888 17.955 42 16.8 42ZM8.4 31.5H25.2V16.8C25.2 14.49 24.3775 12.5125 22.7325 10.8675C21.0875 9.2225 19.11 8.4 16.8 8.4C14.49 8.4 12.5125 9.2225 10.8675 10.8675C9.2225 12.5125 8.4 14.49 8.4 16.8V31.5Z" fill="white"/>
</g>
</svg>
