<svg width="29" height="30" viewBox="0 0 29 30" fill="none" xmlns="http://www.w3.org/2000/svg">
<mask id="mask0_10_516" style="mask-type:alpha" maskUnits="userSpaceOnUse" x="-3" y="-3" width="35" height="36">
<rect x="-2.90001" y="-2.98531" width="34.8" height="35.8235" fill="#D9D9D9"/>
</mask>
<g mask="url(#mask0_10_516)">
<path d="M5.5825 22.539C6.815 21.5687 8.1925 20.8038 9.715 20.244C11.2375 19.6843 12.8325 19.4044 14.5 19.4044C16.1675 19.4044 17.7625 19.6843 19.285 20.244C20.8075 20.8038 22.185 21.5687 23.4175 22.539C24.2633 21.519 24.9219 20.3622 25.3931 19.0686C25.8644 17.7749 26.1 16.3942 26.1 14.9265C26.1 11.6178 24.9702 8.8004 22.7106 6.47435C20.451 4.14831 17.7142 2.98529 14.5 2.98529C11.2858 2.98529 8.54896 4.14831 6.28937 6.47435C4.02979 8.8004 2.9 11.6178 2.9 14.9265C2.9 16.3942 3.13562 17.7749 3.60687 19.0686C4.07812 20.3622 4.73667 21.519 5.5825 22.539ZM14.5 16.4191C13.0742 16.4191 11.8719 15.9153 10.8931 14.9078C9.91437 13.9003 9.425 12.6626 9.425 11.1948C9.425 9.72708 9.91437 8.48943 10.8931 7.48189C11.8719 6.47435 13.0742 5.97059 14.5 5.97059C15.9258 5.97059 17.1281 6.47435 18.1069 7.48189C19.0856 8.48943 19.575 9.72708 19.575 11.1948C19.575 12.6626 19.0856 13.9003 18.1069 14.9078C17.1281 15.9153 15.9258 16.4191 14.5 16.4191ZM14.5 29.8529C12.4942 29.8529 10.6092 29.4611 8.845 28.6775C7.08083 27.8938 5.54625 26.8303 4.24125 25.4869C2.93625 24.1436 1.90312 22.5638 1.14187 20.7478C0.380625 18.9317 0 16.9913 0 14.9265C0 12.8616 0.380625 10.9212 1.14187 9.10514C1.90312 7.28909 2.93625 5.70937 4.24125 4.36599C5.54625 3.02261 7.08083 1.9591 8.845 1.17546C10.6092 0.39182 12.4942 0 14.5 0C16.5058 0 18.3908 0.39182 20.155 1.17546C21.9192 1.9591 23.4537 3.02261 24.7587 4.36599C26.0637 5.70937 27.0969 7.28909 27.8581 9.10514C28.6194 10.9212 29 12.8616 29 14.9265C29 16.9913 28.6194 18.9317 27.8581 20.7478C27.0969 22.5638 26.0637 24.1436 24.7587 25.4869C23.4537 26.8303 21.9192 27.8938 20.155 28.6775C18.3908 29.4611 16.5058 29.8529 14.5 29.8529ZM14.5 26.8676C15.7808 26.8676 16.9892 26.6748 18.125 26.2892C19.2608 25.9036 20.3 25.3501 21.2425 24.6287C20.3 23.9072 19.2608 23.3537 18.125 22.9681C16.9892 22.5825 15.7808 22.3897 14.5 22.3897C13.2192 22.3897 12.0108 22.5825 10.875 22.9681C9.73916 23.3537 8.7 23.9072 7.7575 24.6287C8.7 25.3501 9.73916 25.9036 10.875 26.2892C12.0108 26.6748 13.2192 26.8676 14.5 26.8676ZM14.5 13.4338C15.1283 13.4338 15.6479 13.2224 16.0587 12.7994C16.4696 12.3765 16.675 11.8417 16.675 11.1948C16.675 10.548 16.4696 10.0132 16.0587 9.59025C15.6479 9.16734 15.1283 8.95588 14.5 8.95588C13.8717 8.95588 13.3521 9.16734 12.9412 9.59025C12.5304 10.0132 12.325 10.548 12.325 11.1948C12.325 11.8417 12.5304 12.3765 12.9412 12.7994C13.3521 13.2224 13.8717 13.4338 14.5 13.4338Z" fill="#1C1B1F"/>
</g>
</svg>
