<svg width="23" height="17" viewBox="0 0 23 17" fill="none" xmlns="http://www.w3.org/2000/svg">
<mask id="mask0_10_558" style="mask-type:alpha" maskUnits="userSpaceOnUse" x="-2" y="-5" width="27" height="26">
<rect x="-1.04545" y="-4.18184" width="25.0909" height="25.0909" fill="#D9D9D9"/>
</mask>
<g mask="url(#mask0_10_558)">
<path d="M5.75 16.7273C4.16439 16.7273 2.80966 16.1784 1.6858 15.0807C0.561932 13.983 0 12.6413 0 11.0557C0 9.69659 0.40947 8.48561 1.22841 7.42273C2.04735 6.35985 3.11894 5.6803 4.44318 5.38409C4.87879 3.78106 5.75 2.48295 7.05682 1.48977C8.36364 0.496591 9.8447 0 11.5 0C13.5386 0 15.268 0.710038 16.6881 2.13011C18.1081 3.55019 18.8182 5.27955 18.8182 7.31818C20.0205 7.45758 21.018 7.97595 21.8108 8.8733C22.6036 9.77064 23 10.8205 23 12.0227C23 13.3295 22.5426 14.4403 21.6278 15.3551C20.7131 16.2699 19.6023 16.7273 18.2955 16.7273H12.5455C11.9705 16.7273 11.4782 16.5225 11.0688 16.1131C10.6593 15.7036 10.4545 15.2114 10.4545 14.6364V9.25227L8.78182 10.8727L7.31818 9.40909L11.5 5.22727L15.6818 9.40909L14.2182 10.8727L12.5455 9.25227V14.6364H18.2955C19.0273 14.6364 19.6458 14.3837 20.1511 13.8784C20.6564 13.3731 20.9091 12.7545 20.9091 12.0227C20.9091 11.2909 20.6564 10.6723 20.1511 10.167C19.6458 9.66174 19.0273 9.40909 18.2955 9.40909H16.7273V7.31818C16.7273 5.87197 16.2176 4.63921 15.1983 3.61989C14.179 2.60057 12.9462 2.09091 11.5 2.09091C10.0538 2.09091 8.82102 2.60057 7.80171 3.61989C6.78239 4.63921 6.27273 5.87197 6.27273 7.31818H5.75C4.73939 7.31818 3.87689 7.67538 3.1625 8.38977C2.44811 9.10417 2.09091 9.96667 2.09091 10.9773C2.09091 11.9879 2.44811 12.8504 3.1625 13.5648C3.87689 14.2792 4.73939 14.6364 5.75 14.6364H8.36364V16.7273H5.75Z" fill="white"/>
</g>
</svg>
