<svg width="36" height="34" viewBox="0 0 36 34" fill="none" xmlns="http://www.w3.org/2000/svg">
<mask id="mask0_7_210" style="mask-type:alpha" maskUnits="userSpaceOnUse" x="-4" y="-4" width="44" height="42">
<rect x="-3.60005" y="-3.39414" width="43.2" height="40.7315" fill="#D9D9D9"/>
</mask>
<g mask="url(#mask0_7_210)">
<path d="M16.2 25.4572H19.8V18.6686H27V15.2743H19.8V8.48572H16.2V15.2743H9V18.6686H16.2V25.4572ZM18 33.9429C15.51 33.9429 13.17 33.4974 10.98 32.6064C8.79 31.7154 6.885 30.5062 5.265 28.9787C3.645 27.4513 2.3625 25.6552 1.4175 23.5903C0.4725 21.5254 0 19.3192 0 16.9714C0 14.6237 0.4725 12.4174 1.4175 10.3526C2.3625 8.28772 3.645 6.49157 5.265 4.96414C6.885 3.43672 8.79 2.2275 10.98 1.3365C13.17 0.4455 15.51 0 18 0C20.49 0 22.83 0.4455 25.02 1.3365C27.21 2.2275 29.115 3.43672 30.735 4.96414C32.355 6.49157 33.6375 8.28772 34.5825 10.3526C35.5275 12.4174 36 14.6237 36 16.9714C36 19.3192 35.5275 21.5254 34.5825 23.5903C33.6375 25.6552 32.355 27.4513 30.735 28.9787C29.115 30.5062 27.21 31.7154 25.02 32.6064C22.83 33.4974 20.49 33.9429 18 33.9429ZM18 30.5486C22.02 30.5486 25.425 29.2333 28.215 26.6027C31.005 23.9722 32.4 20.7617 32.4 16.9714C32.4 13.1811 31.005 9.97072 28.215 7.34015C25.425 4.70957 22.02 3.39429 18 3.39429C13.98 3.39429 10.575 4.70957 7.785 7.34015C4.995 9.97072 3.6 13.1811 3.6 16.9714C3.6 20.7617 4.995 23.9722 7.785 26.6027C10.575 29.2333 13.98 30.5486 18 30.5486Z" fill="white"/>
</g>
</svg>
