<svg width="28" height="30" viewBox="0 0 28 30" fill="none" xmlns="http://www.w3.org/2000/svg">
<mask id="mask0_7_244" style="mask-type:alpha" maskUnits="userSpaceOnUse" x="-5" y="-5" width="38" height="40">
<rect x="-4.59058" y="-5" width="36.7241" height="40" fill="#D9D9D9"/>
</mask>
<g mask="url(#mask0_7_244)">
<path d="M0 30V26.6667H24.4828V0H27.5431V26.6667C27.5431 27.5833 27.2434 28.3681 26.6441 29.0208C26.0448 29.6736 25.3244 30 24.4828 30H0ZM18.3621 23.3333C17.5205 23.3333 16.8 23.0069 16.2007 22.3542C15.6014 21.7014 15.3017 20.9167 15.3017 20C15.3017 19.0833 15.6014 18.2986 16.2007 17.6458C16.8 16.9931 17.5205 16.6667 18.3621 16.6667C19.2037 16.6667 19.9241 16.9931 20.5234 17.6458C21.1228 18.2986 21.4224 19.0833 21.4224 20C21.4224 20.9167 21.1228 21.7014 20.5234 22.3542C19.9241 23.0069 19.2037 23.3333 18.3621 23.3333ZM3.06034 15V11.6667H8.56897L0 2.33333L2.14224 0L10.7112 9.33333V3.33333H13.7716V15H3.06034Z" fill="#D9D9D9"/>
</g>
</svg>
