<svg width="40" height="40" viewBox="0 0 40 40" fill="none" xmlns="http://www.w3.org/2000/svg">
<path d="M11.6666 11.6667H9.99996C9.1159 11.6667 8.26806 12.0179 7.64294 12.6431C7.01782 13.2682 6.66663 14.116 6.66663 15.0001V30.0001C6.66663 30.8841 7.01782 31.732 7.64294 32.3571C8.26806 32.9822 9.1159 33.3334 9.99996 33.3334H25C25.884 33.3334 26.7319 32.9822 27.357 32.3571C27.9821 31.732 28.3333 30.8841 28.3333 30.0001V28.3334" stroke="white" stroke-width="2" stroke-linecap="round" stroke-linejoin="round"/>
<path d="M26.6667 8.33339L31.6667 13.3334M33.975 10.9751C34.6314 10.3186 35.0002 9.42836 35.0002 8.50006C35.0002 7.57175 34.6314 6.68147 33.975 6.02506C33.3186 5.36865 32.4283 4.99988 31.5 4.99988C30.5717 4.99988 29.6814 5.36865 29.025 6.02506L15 20.0001V25.0001H20L33.975 10.9751Z" stroke="white" stroke-width="2" stroke-linecap="round" stroke-linejoin="round"/>
</svg>
