<svg width="46" height="36" viewBox="0 0 46 36" fill="none" xmlns="http://www.w3.org/2000/svg">
<path d="M18.539 16.8537C15.9899 16.8537 13.8077 16.0285 11.9924 14.3783C10.1772 12.728 9.26951 10.7442 9.26951 8.42683C9.26951 6.10945 10.1772 4.12564 11.9924 2.47538C13.8077 0.825127 15.9899 0 18.539 0C21.0881 0 23.2703 0.825127 25.0856 2.47538C26.9009 4.12564 27.8085 6.10945 27.8085 8.42683C27.8085 10.7442 26.9009 12.728 25.0856 14.3783C23.2703 16.0285 21.0881 16.8537 18.539 16.8537ZM0 33.7073V27.8085C0 26.6498 0.328295 25.5614 0.984886 24.5431C1.64148 23.5249 2.54912 22.7524 3.70781 22.2258C5.67758 21.3129 7.8984 20.5404 10.3703 19.9084C12.8421 19.2764 15.5651 18.9604 18.539 18.9604H19.3501C19.5818 18.9604 19.8136 18.9955 20.0453 19.0657C19.7363 19.6977 19.4756 20.3561 19.2632 21.0407C19.0508 21.7254 18.8866 22.4364 18.7708 23.1738H18.539C15.7968 23.1738 13.3346 23.4898 11.1524 24.1218C8.97019 24.7538 7.18387 25.3858 5.79345 26.0178C5.44584 26.1934 5.16582 26.4392 4.9534 26.7552C4.74097 27.0712 4.63476 27.4223 4.63476 27.8085V29.4939H19.2342C19.466 30.2313 19.775 30.9598 20.1612 31.6796C20.5474 32.3994 20.9723 33.0753 21.4358 33.7073H0ZM32.4433 35.814L31.7481 32.654C31.2846 32.4784 30.8501 32.2941 30.4446 32.101C30.039 31.9078 29.6238 31.6708 29.199 31.3899L25.8388 32.338L23.5214 28.7566L26.1864 26.6498C26.1091 26.1583 26.0705 25.7018 26.0705 25.2805C26.0705 24.8591 26.1091 24.4027 26.1864 23.9111L23.5214 21.8044L25.8388 18.223L29.199 19.171C29.6238 18.8901 30.039 18.6531 30.4446 18.46C30.8501 18.2669 31.2846 18.0826 31.7481 17.907L32.4433 14.747H37.0781L37.7733 17.907C38.2367 18.0826 38.6713 18.2757 39.0768 18.4864C39.4823 18.697 39.8975 18.9604 40.3224 19.2764L43.6826 18.223L46 21.9098L43.335 24.0165C43.4122 24.4378 43.4508 24.8767 43.4508 25.3332C43.4508 25.7896 43.4122 26.2285 43.335 26.6498L46 28.7566L43.6826 32.338L40.3224 31.3899C39.8975 31.6708 39.4823 31.9078 39.0768 32.101C38.6713 32.2941 38.2367 32.4784 37.7733 32.654L37.0781 35.814H32.4433ZM34.7607 29.4939C36.0352 29.4939 37.1263 29.0813 38.034 28.2562C38.9416 27.4311 39.3954 26.4392 39.3954 25.2805C39.3954 24.1218 38.9416 23.1299 38.034 22.3048C37.1263 21.4796 36.0352 21.0671 34.7607 21.0671C33.4861 21.0671 32.395 21.4796 31.4874 22.3048C30.5797 23.1299 30.1259 24.1218 30.1259 25.2805C30.1259 26.4392 30.5797 27.4311 31.4874 28.2562C32.395 29.0813 33.4861 29.4939 34.7607 29.4939ZM18.539 12.6402C19.8136 12.6402 20.9047 12.2277 21.8123 11.4026C22.72 10.5774 23.1738 9.58552 23.1738 8.42683C23.1738 7.26814 22.72 6.27623 21.8123 5.45111C20.9047 4.62598 19.8136 4.21341 18.539 4.21341C17.2645 4.21341 16.1734 4.62598 15.2657 5.45111C14.3581 6.27623 13.9043 7.26814 13.9043 8.42683C13.9043 9.58552 14.3581 10.5774 15.2657 11.4026C16.1734 12.2277 17.2645 12.6402 18.539 12.6402Z" fill="white"/>
</svg>
