<svg width="30" height="30" viewBox="0 0 30 30" fill="none" xmlns="http://www.w3.org/2000/svg">
<path d="M10.5417 22.125C10.2361 21.7639 10.0833 21.3544 10.0833 20.8967C10.0833 20.4389 10.2361 20.0567 10.5417 19.75L13.625 16.6667H1.66667C1.19445 16.6667 0.798339 16.5067 0.478339 16.1867C0.158339 15.8667 -0.00110534 15.4711 5.76701e-06 15C5.76701e-06 14.5278 0.160006 14.1317 0.480006 13.8117C0.800006 13.4917 1.19556 13.3322 1.66667 13.3333H13.625L10.5417 10.25C10.2083 9.91667 10.0417 9.52056 10.0417 9.06167C10.0417 8.60278 10.2083 8.20722 10.5417 7.875C10.8472 7.54167 11.2294 7.375 11.6883 7.375C12.1472 7.375 12.5289 7.52778 12.8333 7.83334L18.8333 13.8333C19 14 19.1183 14.1806 19.1883 14.375C19.2583 14.5694 19.2928 14.7778 19.2917 15C19.2917 15.2222 19.2572 15.4306 19.1883 15.625C19.1194 15.8194 19.0011 16 18.8333 16.1667L12.8333 22.1667C12.5 22.5 12.1111 22.6528 11.6667 22.625C11.2222 22.5972 10.8472 22.4306 10.5417 22.125ZM16.6667 30C16.1944 30 15.7989 29.8406 15.48 29.5217C15.1611 29.2028 15.0011 28.8067 15 28.3333C15 27.8611 15.16 27.465 15.48 27.145C15.8 26.825 16.1956 26.6656 16.6667 26.6667H26.6667V3.33334H16.6667C16.1944 3.33334 15.7983 3.17334 15.4783 2.85334C15.1583 2.53334 14.9989 2.13778 15 1.66667C15 1.19445 15.16 0.798339 15.48 0.478339C15.8 0.158339 16.1956 -0.00110534 16.6667 5.76701e-06H26.6667C27.5833 5.76701e-06 28.3683 0.326672 29.0217 0.980006C29.675 1.63334 30.0011 2.41778 30 3.33334V26.6667C30 27.5833 29.6733 28.3683 29.02 29.0217C28.3667 29.675 27.5822 30.0011 26.6667 30H16.6667Z" fill="white"/>
</svg>
